<svg width="512" height="512" viewBox="0 0 512 512" fill="none" xmlns="http://www.w3.org/2000/svg">
<path d="M431.86 96H80.14C62.3896 96 48 110.39 48 128.14V367.86C48 385.61 62.3896 400 80.14 400H431.86C449.61 400 464 385.61 464 367.86V128.14C464 110.39 449.61 96 431.86 96Z" stroke="white" stroke-width="32" stroke-linejoin="round"/>
<path d="M16 416H496Z" fill="white"/>
<path d="M16 416H496" stroke="white" stroke-width="32" stroke-miterlimit="10" stroke-linecap="round"/>
<path d="M301.474 182.826C281.786 182.826 273.466 192.221 259.755 192.221C245.697 192.221 234.975 182.895 217.914 182.895C201.215 182.895 183.407 193.09 172.099 210.458C156.22 234.95 158.915 281.078 184.633 320.375C193.832 334.442 206.117 350.219 222.23 350.39H222.523C236.527 350.39 240.687 341.22 259.96 341.112H260.253C279.237 341.112 283.046 350.336 296.991 350.336H297.284C313.397 350.165 326.342 332.685 335.541 318.671C342.162 308.593 344.623 303.534 349.701 292.133C312.499 278.012 306.522 225.272 343.314 205.053C332.084 190.99 316.303 182.846 301.425 182.846L301.474 182.826Z" fill="white"/>
<path d="M297.138 131.625C285.419 132.421 271.747 139.882 263.739 149.623C256.474 158.451 250.497 171.547 252.841 184.247H253.779C266.259 184.247 279.032 176.732 286.493 167.104C293.681 157.938 299.13 144.95 297.138 131.625Z" fill="white"/>
</svg>
